<svg width="2501" height="1407" viewBox="0 0 2501 1407" fill="none" xmlns="http://www.w3.org/2000/svg">
<g clip-path="url(#clip0_5538_2495)">
<g filter="url(#filter0_d_5538_2495)">
<path fill-rule="evenodd" clip-rule="evenodd" d="M2501 40C2501 17.9086 2483.09 0 2461 0H40C17.9086 0 0 17.9086 0 40V1367C0 1389.09 17.9086 1407 40 1407H2461C2483.09 1407 2501 1389.09 2501 1367V40ZM1962 344C1962 321.909 1944.09 304 1922 304H579C556.909 304 539 321.909 539 344V1064C539 1086.09 556.909 1104 579 1104H1922C1944.09 1104 1962 1086.09 1962 1064V344Z" fill="#3A1146"/>
</g>
</g>
<defs>
<filter id="filter0_d_5538_2495" x="-50" y="-50" width="2601" height="1507" filterUnits="userSpaceOnUse" color-interpolation-filters="sRGB">
<feFlood flood-opacity="0" result="BackgroundImageFix"/>
<feColorMatrix in="SourceAlpha" type="matrix" values="0 0 0 0 0 0 0 0 0 0 0 0 0 0 0 0 0 0 127 0" result="hardAlpha"/>
<feOffset/>
<feGaussianBlur stdDeviation="25"/>
<feComposite in2="hardAlpha" operator="out"/>
<feColorMatrix type="matrix" values="0 0 0 0 0 0 0 0 0 0 0 0 0 0 0 0 0 0 1 0"/>
<feBlend mode="normal" in2="BackgroundImageFix" result="effect1_dropShadow_5538_2495"/>
<feBlend mode="normal" in="SourceGraphic" in2="effect1_dropShadow_5538_2495" result="shape"/>
</filter>
<clipPath id="clip0_5538_2495">
<rect width="2501" height="1407" fill="white"/>
</clipPath>
</defs>
</svg>
