<svg width="2501" height="1407" viewBox="0 0 2501 1407" fill="none" xmlns="http://www.w3.org/2000/svg">
<path d="M817.958 118H966.266C1003.87 118 1028.02 157.954 1010.53 191.247L931.41 341.912C929.808 344.962 927.894 347.839 925.7 350.497L821.053 477.253C809.276 491.518 821.514 512.753 839.761 509.714L1313.86 430.766C1341.22 426.21 1367.07 444.8 1371.45 472.192L1387.55 572.919C1391.73 599.072 1374.8 623.949 1348.93 629.644L711.294 770.041C674.926 778.048 642.88 744.914 652.098 708.834L691.785 553.498C694.518 542.801 693.633 531.5 689.269 521.358L673.309 484.267C665.516 466.158 669.093 445.16 682.441 430.651L771.193 334.181C781.212 323.291 785.892 308.523 783.975 293.851L768.379 174.478C764.468 144.545 787.771 118 817.958 118Z" fill="#5C2D5A" stroke="#F19FED" stroke-width="20"/>
<path d="M1172 528L1270 497.5" stroke="#F19FED" stroke-width="20"/>
<path d="M775.814 716.854L761.069 631.54C756.68 606.147 792.353 595.665 802.398 619.397L810.435 638.384C816.132 651.841 835.734 650.093 838.959 635.841V635.841C842.194 621.542 861.887 619.847 867.518 633.382L887.5 681.409" stroke="#F19FED" stroke-width="26.7511"/>
<path d="M912.5 585.5C933.5 687 985.5 669.5 966.5 581" stroke="#F19FED" stroke-width="20"/>
<path d="M1020 652.5L1003.08 591.451C999.863 579.831 1007.62 568.035 1019.56 566.388L1026 565.5C1038.66 563.754 1048.32 576.582 1043.14 588.264V588.264C1039.11 597.353 1044.08 607.9 1053.66 610.578L1094.5 622" stroke="#F19FED" stroke-width="20"/>
<path d="M1120 633.5V547.958C1120 541.63 1125.13 536.5 1131.46 536.5V536.5C1135.24 536.5 1138.78 538.365 1140.91 541.486L1188.5 611" stroke="#F19FED" stroke-width="20"/>
<path d="M1125 595.5L1185.5 565.5" stroke="#F19FED" stroke-width="20"/>
<path d="M1256 593L1221.5 512" stroke="#F19FED" stroke-width="20"/>
</svg>
