<svg width="2501" height="1407" viewBox="0 0 2501 1407" fill="none" xmlns="http://www.w3.org/2000/svg">
<g clip-path="url(#clip0_5538_2578)">
<g filter="url(#filter0_d_5538_2578)">
<path fill-rule="evenodd" clip-rule="evenodd" d="M2501 40C2501 17.9086 2483.09 0 2461 0H40C17.9086 0 0 17.9086 0 40V1367C0 1389.09 17.9086 1407 40 1407H2461C2483.09 1407 2501 1389.09 2501 1367V40ZM2040 299C2040 276.909 2022.09 259 2000 259H500C477.909 259 460 276.909 460 299V1109C460 1131.09 477.909 1149 500 1149H2000C2022.09 1149 2040 1131.09 2040 1109V299Z" fill="#340443"/>
</g>
</g>
<defs>
<filter id="filter0_d_5538_2578" x="-200" y="-200" width="2901" height="1807" filterUnits="userSpaceOnUse" color-interpolation-filters="sRGB">
<feFlood flood-opacity="0" result="BackgroundImageFix"/>
<feColorMatrix in="SourceAlpha" type="matrix" values="0 0 0 0 0 0 0 0 0 0 0 0 0 0 0 0 0 0 127 0" result="hardAlpha"/>
<feOffset/>
<feGaussianBlur stdDeviation="100"/>
<feComposite in2="hardAlpha" operator="out"/>
<feColorMatrix type="matrix" values="0 0 0 0 0 0 0 0 0 0 0 0 0 0 0 0 0 0 1 0"/>
<feBlend mode="normal" in2="BackgroundImageFix" result="effect1_dropShadow_5538_2578"/>
<feBlend mode="normal" in="SourceGraphic" in2="effect1_dropShadow_5538_2578" result="shape"/>
</filter>
<clipPath id="clip0_5538_2578">
<rect width="2501" height="1407" fill="white"/>
</clipPath>
</defs>
</svg>
