<svg width="2501" height="1407" viewBox="0 0 2501 1407" fill="none" xmlns="http://www.w3.org/2000/svg">
<g clip-path="url(#clip0_5538_2619)">
<g filter="url(#filter0_d_5538_2619)">
<path fill-rule="evenodd" clip-rule="evenodd" d="M2501 40C2501 17.9086 2483.09 0 2461 0H40C17.9086 0 0 17.9086 0 40V1367C0 1389.09 17.9086 1407 40 1407H2461C2483.09 1407 2501 1389.09 2501 1367V40ZM2130 249C2130 226.909 2112.09 209 2090 209H411C388.909 209 371 226.909 371 249V1159C371 1181.09 388.909 1199 411 1199H2090C2112.09 1199 2130 1181.09 2130 1159V249Z" fill="#49085D"/>
</g>
</g>
<defs>
<filter id="filter0_d_5538_2619" x="-50" y="-50" width="2601" height="1507" filterUnits="userSpaceOnUse" color-interpolation-filters="sRGB">
<feFlood flood-opacity="0" result="BackgroundImageFix"/>
<feColorMatrix in="SourceAlpha" type="matrix" values="0 0 0 0 0 0 0 0 0 0 0 0 0 0 0 0 0 0 127 0" result="hardAlpha"/>
<feOffset/>
<feGaussianBlur stdDeviation="25"/>
<feComposite in2="hardAlpha" operator="out"/>
<feColorMatrix type="matrix" values="0 0 0 0 0 0 0 0 0 0 0 0 0 0 0 0 0 0 1 0"/>
<feBlend mode="normal" in2="BackgroundImageFix" result="effect1_dropShadow_5538_2619"/>
<feBlend mode="normal" in="SourceGraphic" in2="effect1_dropShadow_5538_2619" result="shape"/>
</filter>
<clipPath id="clip0_5538_2619">
<rect width="2501" height="1407" fill="white"/>
</clipPath>
</defs>
</svg>
