<svg width="1920" height="1080" viewBox="0 0 1920 1080" fill="none" xmlns="http://www.w3.org/2000/svg">
<rect width="1920" height="1080" fill="#1F0427"/>
<path d="M961 479L961 611" stroke="#FFCDFD" stroke-width="10" stroke-dasharray="20 20"/>
<path d="M1015.98 512.42C1012.46 512.42 1009.74 511.52 1007.82 509.72C1005.9 507.88 1004.94 505.18 1004.94 501.62V472.88H1012.44V501.44C1012.44 502.96 1012.82 504.14 1013.58 504.98C1014.38 505.82 1015.48 506.24 1016.88 506.24C1018.56 506.24 1019.96 505.8 1021.08 504.92L1023.18 510.26C1022.3 510.98 1021.22 511.52 1019.94 511.88C1018.66 512.24 1017.34 512.42 1015.98 512.42ZM999.66 486.2V480.2H1021.02V486.2H999.66ZM1047.53 479.6C1050.09 479.6 1052.37 480.1 1054.37 481.1C1056.41 482.1 1058.01 483.64 1059.17 485.72C1060.33 487.76 1060.91 490.4 1060.91 493.64V512H1053.41V494.6C1053.41 491.76 1052.73 489.64 1051.37 488.24C1050.05 486.84 1048.19 486.14 1045.79 486.14C1044.03 486.14 1042.47 486.5 1041.11 487.22C1039.75 487.94 1038.69 489.02 1037.93 490.46C1037.21 491.86 1036.85 493.64 1036.85 495.8V512H1029.35V467.48H1036.85V488.6L1035.23 485.96C1036.35 483.92 1037.97 482.36 1040.09 481.28C1042.25 480.16 1044.73 479.6 1047.53 479.6ZM1085.54 512.42C1081.98 512.42 1078.86 511.72 1076.18 510.32C1073.54 508.88 1071.48 506.92 1070 504.44C1068.56 501.96 1067.84 499.14 1067.84 495.98C1067.84 492.78 1068.54 489.96 1069.94 487.52C1071.38 485.04 1073.34 483.1 1075.82 481.7C1078.34 480.3 1081.2 479.6 1084.4 479.6C1087.52 479.6 1090.3 480.28 1092.74 481.64C1095.18 483 1097.1 484.92 1098.5 487.4C1099.9 489.88 1100.6 492.8 1100.6 496.16C1100.6 496.48 1100.58 496.84 1100.54 497.24C1100.54 497.64 1100.52 498.02 1100.48 498.38H1073.78V493.4H1096.52L1093.58 494.96C1093.62 493.12 1093.24 491.5 1092.44 490.1C1091.64 488.7 1090.54 487.6 1089.14 486.8C1087.78 486 1086.2 485.6 1084.4 485.6C1082.56 485.6 1080.94 486 1079.54 486.8C1078.18 487.6 1077.1 488.72 1076.3 490.16C1075.54 491.56 1075.16 493.22 1075.16 495.14V496.34C1075.16 498.26 1075.6 499.96 1076.48 501.44C1077.36 502.92 1078.6 504.06 1080.2 504.86C1081.8 505.66 1083.64 506.06 1085.72 506.06C1087.52 506.06 1089.14 505.78 1090.58 505.22C1092.02 504.66 1093.3 503.78 1094.42 502.58L1098.44 507.2C1097 508.88 1095.18 510.18 1092.98 511.1C1090.82 511.98 1088.34 512.42 1085.54 512.42ZM1021.68 562.42C1019.08 562.42 1016.7 561.82 1014.54 560.62C1012.42 559.42 1010.72 557.62 1009.44 555.22C1008.2 552.78 1007.58 549.7 1007.58 545.98C1007.58 542.22 1008.18 539.14 1009.38 536.74C1010.62 534.34 1012.3 532.56 1014.42 531.4C1016.54 530.2 1018.96 529.6 1021.68 529.6C1024.84 529.6 1027.62 530.28 1030.02 531.64C1032.46 533 1034.38 534.9 1035.78 537.34C1037.22 539.78 1037.94 542.66 1037.94 545.98C1037.94 549.3 1037.22 552.2 1035.78 554.68C1034.38 557.12 1032.46 559.02 1030.02 560.38C1027.62 561.74 1024.84 562.42 1021.68 562.42ZM1003.92 573.64V529.96H1011.06V537.52L1010.82 546.04L1011.42 554.56V573.64H1003.92ZM1020.84 556C1022.64 556 1024.24 555.6 1025.64 554.8C1027.08 554 1028.22 552.84 1029.06 551.32C1029.9 549.8 1030.32 548.02 1030.32 545.98C1030.32 543.9 1029.9 542.12 1029.06 540.64C1028.22 539.12 1027.08 537.96 1025.64 537.16C1024.24 536.36 1022.64 535.96 1020.84 535.96C1019.04 535.96 1017.42 536.36 1015.98 537.16C1014.54 537.96 1013.4 539.12 1012.56 540.64C1011.72 542.12 1011.3 543.9 1011.3 545.98C1011.3 548.02 1011.72 549.8 1012.56 551.32C1013.4 552.84 1014.54 554 1015.98 554.8C1017.42 555.6 1019.04 556 1020.84 556ZM1059.45 562.42C1056.17 562.42 1053.25 561.72 1050.69 560.32C1048.13 558.88 1046.11 556.92 1044.63 554.44C1043.15 551.96 1042.41 549.14 1042.41 545.98C1042.41 542.78 1043.15 539.96 1044.63 537.52C1046.11 535.04 1048.13 533.1 1050.69 531.7C1053.25 530.3 1056.17 529.6 1059.45 529.6C1062.77 529.6 1065.71 530.3 1068.27 531.7C1070.87 533.1 1072.89 535.02 1074.33 537.46C1075.81 539.9 1076.55 542.74 1076.55 545.98C1076.55 549.14 1075.81 551.96 1074.33 554.44C1072.89 556.92 1070.87 558.88 1068.27 560.32C1065.71 561.72 1062.77 562.42 1059.45 562.42ZM1059.45 556C1061.29 556 1062.93 555.6 1064.37 554.8C1065.81 554 1066.93 552.84 1067.73 551.32C1068.57 549.8 1068.99 548.02 1068.99 545.98C1068.99 543.9 1068.57 542.12 1067.73 540.64C1066.93 539.12 1065.81 537.96 1064.37 537.16C1062.93 536.36 1061.31 535.96 1059.51 535.96C1057.67 535.96 1056.03 536.36 1054.59 537.16C1053.19 537.96 1052.07 539.12 1051.23 540.64C1050.39 542.12 1049.97 543.9 1049.97 545.98C1049.97 548.02 1050.39 549.8 1051.23 551.32C1052.07 552.84 1053.19 554 1054.59 554.8C1056.03 555.6 1057.65 556 1059.45 556ZM1083.72 562V529.96H1090.86V538.78L1090.02 536.2C1090.98 534.04 1092.48 532.4 1094.52 531.28C1096.6 530.16 1099.18 529.6 1102.26 529.6V536.74C1101.94 536.66 1101.64 536.62 1101.36 536.62C1101.08 536.58 1100.8 536.56 1100.52 536.56C1097.68 536.56 1095.42 537.4 1093.74 539.08C1092.06 540.72 1091.22 543.18 1091.22 546.46V562H1083.72ZM1121.86 562.42C1118.34 562.42 1115.62 561.52 1113.7 559.72C1111.78 557.88 1110.82 555.18 1110.82 551.62V522.88H1118.32V551.44C1118.32 552.96 1118.7 554.14 1119.46 554.98C1120.26 555.82 1121.36 556.24 1122.76 556.24C1124.44 556.24 1125.84 555.8 1126.96 554.92L1129.06 560.26C1128.18 560.98 1127.1 561.52 1125.82 561.88C1124.54 562.24 1123.22 562.42 1121.86 562.42ZM1105.54 536.2V530.2H1126.9V536.2H1105.54ZM1136.25 562V528.16C1136.25 524.8 1137.23 522.12 1139.19 520.12C1141.19 518.08 1144.03 517.06 1147.71 517.06C1149.03 517.06 1150.27 517.2 1151.43 517.48C1152.63 517.76 1153.63 518.2 1154.43 518.8L1152.39 524.44C1151.83 524 1151.19 523.68 1150.47 523.48C1149.75 523.24 1149.01 523.12 1148.25 523.12C1146.69 523.12 1145.51 523.56 1144.71 524.44C1143.91 525.28 1143.51 526.56 1143.51 528.28V531.88L1143.75 535.24V562H1136.25ZM1130.97 536.2V530.2H1152.33V536.2H1130.97ZM1171.31 562.42C1168.03 562.42 1165.11 561.72 1162.55 560.32C1159.99 558.88 1157.97 556.92 1156.49 554.44C1155.01 551.96 1154.27 549.14 1154.27 545.98C1154.27 542.78 1155.01 539.96 1156.49 537.52C1157.97 535.04 1159.99 533.1 1162.55 531.7C1165.11 530.3 1168.03 529.6 1171.31 529.6C1174.63 529.6 1177.57 530.3 1180.13 531.7C1182.73 533.1 1184.75 535.02 1186.19 537.46C1187.67 539.9 1188.41 542.74 1188.41 545.98C1188.41 549.14 1187.67 551.96 1186.19 554.44C1184.75 556.92 1182.73 558.88 1180.13 560.32C1177.57 561.72 1174.63 562.42 1171.31 562.42ZM1171.31 556C1173.15 556 1174.79 555.6 1176.23 554.8C1177.67 554 1178.79 552.84 1179.59 551.32C1180.43 549.8 1180.85 548.02 1180.85 545.98C1180.85 543.9 1180.43 542.12 1179.59 540.64C1178.79 539.12 1177.67 537.96 1176.23 537.16C1174.79 536.36 1173.17 535.96 1171.37 535.96C1169.53 535.96 1167.89 536.36 1166.45 537.16C1165.05 537.96 1163.93 539.12 1163.09 540.64C1162.25 542.12 1161.83 543.9 1161.83 545.98C1161.83 548.02 1162.25 549.8 1163.09 551.32C1163.93 552.84 1165.05 554 1166.45 554.8C1167.89 555.6 1169.51 556 1171.31 556ZM1195.58 562V517.48H1203.08V562H1195.58ZM1212.92 562V529.96H1220.42V562H1212.92ZM1216.7 524.68C1215.3 524.68 1214.14 524.24 1213.22 523.36C1212.34 522.48 1211.9 521.42 1211.9 520.18C1211.9 518.9 1212.34 517.84 1213.22 517C1214.14 516.12 1215.3 515.68 1216.7 515.68C1218.1 515.68 1219.24 516.1 1220.12 516.94C1221.04 517.74 1221.5 518.76 1221.5 520C1221.5 521.32 1221.06 522.44 1220.18 523.36C1219.3 524.24 1218.14 524.68 1216.7 524.68ZM1244.67 562.42C1241.39 562.42 1238.47 561.72 1235.91 560.32C1233.35 558.88 1231.33 556.92 1229.85 554.44C1228.37 551.96 1227.63 549.14 1227.63 545.98C1227.63 542.78 1228.37 539.96 1229.85 537.52C1231.33 535.04 1233.35 533.1 1235.91 531.7C1238.47 530.3 1241.39 529.6 1244.67 529.6C1247.99 529.6 1250.93 530.3 1253.49 531.7C1256.09 533.1 1258.11 535.02 1259.55 537.46C1261.03 539.9 1261.77 542.74 1261.77 545.98C1261.77 549.14 1261.03 551.96 1259.55 554.44C1258.11 556.92 1256.09 558.88 1253.49 560.32C1250.93 561.72 1247.99 562.42 1244.67 562.42ZM1244.67 556C1246.51 556 1248.15 555.6 1249.59 554.8C1251.03 554 1252.15 552.84 1252.95 551.32C1253.79 549.8 1254.21 548.02 1254.21 545.98C1254.21 543.9 1253.79 542.12 1252.95 540.64C1252.15 539.12 1251.03 537.96 1249.59 537.16C1248.15 536.36 1246.53 535.96 1244.73 535.96C1242.89 535.96 1241.25 536.36 1239.81 537.16C1238.41 537.96 1237.29 539.12 1236.45 540.64C1235.61 542.12 1235.19 543.9 1235.19 545.98C1235.19 548.02 1235.61 549.8 1236.45 551.32C1237.29 552.84 1238.41 554 1239.81 554.8C1241.25 555.6 1242.87 556 1244.67 556ZM1013.82 612.42C1011.14 612.42 1008.56 612.08 1006.08 611.4C1003.64 610.68 1001.7 609.82 1000.26 608.82L1003.14 603.12C1004.58 604.04 1006.3 604.8 1008.3 605.4C1010.3 606 1012.3 606.3 1014.3 606.3C1016.66 606.3 1018.36 605.98 1019.4 605.34C1020.48 604.7 1021.02 603.84 1021.02 602.76C1021.02 601.88 1020.66 601.22 1019.94 600.78C1019.22 600.3 1018.28 599.94 1017.12 599.7C1015.96 599.46 1014.66 599.24 1013.22 599.04C1011.82 598.84 1010.4 598.58 1008.96 598.26C1007.56 597.9 1006.28 597.4 1005.12 596.76C1003.96 596.08 1003.02 595.18 1002.3 594.06C1001.58 592.94 1001.22 591.46 1001.22 589.62C1001.22 587.58 1001.8 585.82 1002.96 584.34C1004.12 582.82 1005.74 581.66 1007.82 580.86C1009.94 580.02 1012.44 579.6 1015.32 579.6C1017.48 579.6 1019.66 579.84 1021.86 580.32C1024.06 580.8 1025.88 581.48 1027.32 582.36L1024.44 588.06C1022.92 587.14 1021.38 586.52 1019.82 586.2C1018.3 585.84 1016.78 585.66 1015.26 585.66C1012.98 585.66 1011.28 586 1010.16 586.68C1009.08 587.36 1008.54 588.22 1008.54 589.26C1008.54 590.22 1008.9 590.94 1009.62 591.42C1010.34 591.9 1011.28 592.28 1012.44 592.56C1013.6 592.84 1014.88 593.08 1016.28 593.28C1017.72 593.44 1019.14 593.7 1020.54 594.06C1021.94 594.42 1023.22 594.92 1024.38 595.56C1025.58 596.16 1026.54 597.02 1027.26 598.14C1027.98 599.26 1028.34 600.72 1028.34 602.52C1028.34 604.52 1027.74 606.26 1026.54 607.74C1025.38 609.22 1023.72 610.38 1021.56 611.22C1019.4 612.02 1016.82 612.42 1013.82 612.42ZM1052.98 579.6C1055.54 579.6 1057.82 580.1 1059.82 581.1C1061.86 582.1 1063.46 583.64 1064.62 585.72C1065.78 587.76 1066.36 590.4 1066.36 593.64V612H1058.86V594.6C1058.86 591.76 1058.18 589.64 1056.82 588.24C1055.5 586.84 1053.64 586.14 1051.24 586.14C1049.48 586.14 1047.92 586.5 1046.56 587.22C1045.2 587.94 1044.14 589.02 1043.38 590.46C1042.66 591.86 1042.3 593.64 1042.3 595.8V612H1034.8V567.48H1042.3V588.6L1040.68 585.96C1041.8 583.92 1043.42 582.36 1045.54 581.28C1047.7 580.16 1050.18 579.6 1052.98 579.6ZM1090.33 612.42C1087.05 612.42 1084.13 611.72 1081.57 610.32C1079.01 608.88 1076.99 606.92 1075.51 604.44C1074.03 601.96 1073.29 599.14 1073.29 595.98C1073.29 592.78 1074.03 589.96 1075.51 587.52C1076.99 585.04 1079.01 583.1 1081.57 581.7C1084.13 580.3 1087.05 579.6 1090.33 579.6C1093.65 579.6 1096.59 580.3 1099.15 581.7C1101.75 583.1 1103.77 585.02 1105.21 587.46C1106.69 589.9 1107.43 592.74 1107.43 595.98C1107.43 599.14 1106.69 601.96 1105.21 604.44C1103.77 606.92 1101.75 608.88 1099.15 610.32C1096.59 611.72 1093.65 612.42 1090.33 612.42ZM1090.33 606C1092.17 606 1093.81 605.6 1095.25 604.8C1096.69 604 1097.81 602.84 1098.61 601.32C1099.45 599.8 1099.87 598.02 1099.87 595.98C1099.87 593.9 1099.45 592.12 1098.61 590.64C1097.81 589.12 1096.69 587.96 1095.25 587.16C1093.81 586.36 1092.19 585.96 1090.39 585.96C1088.55 585.96 1086.91 586.36 1085.47 587.16C1084.07 587.96 1082.95 589.12 1082.11 590.64C1081.27 592.12 1080.85 593.9 1080.85 595.98C1080.85 598.02 1081.27 599.8 1082.11 601.32C1082.95 602.84 1084.07 604 1085.47 604.8C1086.91 605.6 1088.53 606 1090.33 606ZM1120.8 612L1109.04 579.96H1116.12L1126.2 608.22H1122.84L1133.4 579.96H1139.7L1149.96 608.22H1146.66L1157.04 579.96H1163.7L1151.88 612H1144.68L1135.32 586.98H1137.54L1128 612H1120.8Z" fill="#FFCDFD"/>
<path d="M676.988 502.1L676.568 492.86L698.588 470H707.348L689.048 489.44L684.728 494.18L676.988 502.1ZM670.028 512V470H677.828V512H670.028ZM699.308 512L683.228 492.86L688.388 487.16L708.428 512H699.308ZM731.997 512V505.52L731.577 504.14V492.8C731.577 490.6 730.917 488.9 729.597 487.7C728.277 486.46 726.277 485.84 723.597 485.84C721.797 485.84 720.017 486.12 718.257 486.68C716.537 487.24 715.077 488.02 713.877 489.02L710.937 483.56C712.657 482.24 714.697 481.26 717.057 480.62C719.457 479.94 721.937 479.6 724.497 479.6C729.137 479.6 732.717 480.72 735.237 482.96C737.797 485.16 739.077 488.58 739.077 493.22V512H731.997ZM721.917 512.42C719.517 512.42 717.417 512.02 715.617 511.22C713.817 510.38 712.417 509.24 711.417 507.8C710.457 506.32 709.977 504.66 709.977 502.82C709.977 501.02 710.397 499.4 711.237 497.96C712.117 496.52 713.537 495.38 715.497 494.54C717.457 493.7 720.057 493.28 723.297 493.28H732.597V498.26H723.837C721.277 498.26 719.557 498.68 718.677 499.52C717.797 500.32 717.357 501.32 717.357 502.52C717.357 503.88 717.897 504.96 718.977 505.76C720.057 506.56 721.557 506.96 723.477 506.96C725.317 506.96 726.957 506.54 728.397 505.7C729.877 504.86 730.937 503.62 731.577 501.98L732.837 506.48C732.117 508.36 730.817 509.82 728.937 510.86C727.097 511.9 724.757 512.42 721.917 512.42ZM748.703 512V479.96H755.843V488.78L755.003 486.2C755.963 484.04 757.463 482.4 759.503 481.28C761.583 480.16 764.163 479.6 767.243 479.6V486.74C766.923 486.66 766.623 486.62 766.343 486.62C766.063 486.58 765.783 486.56 765.503 486.56C762.663 486.56 760.403 487.4 758.723 489.08C757.043 490.72 756.203 493.18 756.203 496.46V512H748.703ZM773.605 512V479.96H781.105V512H773.605ZM777.385 474.68C775.985 474.68 774.825 474.24 773.905 473.36C773.025 472.48 772.585 471.42 772.585 470.18C772.585 468.9 773.025 467.84 773.905 467C774.825 466.12 775.985 465.68 777.385 465.68C778.785 465.68 779.925 466.1 780.805 466.94C781.725 467.74 782.185 468.76 782.185 470C782.185 471.32 781.745 472.44 780.865 473.36C779.985 474.24 778.825 474.68 777.385 474.68ZM831.389 479.6C833.949 479.6 836.209 480.1 838.169 481.1C840.169 482.1 841.729 483.64 842.849 485.72C843.969 487.76 844.529 490.4 844.529 493.64V512H837.029V494.6C837.029 491.76 836.409 489.64 835.169 488.24C833.929 486.84 832.149 486.14 829.829 486.14C828.189 486.14 826.729 486.5 825.449 487.22C824.209 487.94 823.229 489 822.509 490.4C821.829 491.8 821.489 493.58 821.489 495.74V512H813.989V494.6C813.989 491.76 813.369 489.64 812.129 488.24C810.889 486.84 809.109 486.14 806.789 486.14C805.149 486.14 803.689 486.5 802.409 487.22C801.169 487.94 800.189 489 799.469 490.4C798.789 491.8 798.449 493.58 798.449 495.74V512H790.949V479.96H798.089V488.48L796.829 485.96C797.909 483.88 799.469 482.3 801.509 481.22C803.589 480.14 805.949 479.6 808.589 479.6C811.589 479.6 814.189 480.34 816.389 481.82C818.629 483.3 820.109 485.54 820.829 488.54L817.889 487.52C818.929 485.12 820.649 483.2 823.049 481.76C825.449 480.32 828.229 479.6 831.389 479.6ZM868.571 512.42C865.291 512.42 862.371 511.72 859.811 510.32C857.251 508.88 855.231 506.92 853.751 504.44C852.271 501.96 851.531 499.14 851.531 495.98C851.531 492.78 852.271 489.96 853.751 487.52C855.231 485.04 857.251 483.1 859.811 481.7C862.371 480.3 865.291 479.6 868.571 479.6C871.891 479.6 874.831 480.3 877.391 481.7C879.991 483.1 882.011 485.02 883.451 487.46C884.931 489.9 885.671 492.74 885.671 495.98C885.671 499.14 884.931 501.96 883.451 504.44C882.011 506.92 879.991 508.88 877.391 510.32C874.831 511.72 871.891 512.42 868.571 512.42ZM868.571 506C870.411 506 872.051 505.6 873.491 504.8C874.931 504 876.051 502.84 876.851 501.32C877.691 499.8 878.111 498.02 878.111 495.98C878.111 493.9 877.691 492.12 876.851 490.64C876.051 489.12 874.931 487.96 873.491 487.16C872.051 486.36 870.431 485.96 868.631 485.96C866.791 485.96 865.151 486.36 863.711 487.16C862.311 487.96 861.191 489.12 860.351 490.64C859.511 492.12 859.091 493.9 859.091 495.98C859.091 498.02 859.511 499.8 860.351 501.32C861.191 502.84 862.311 504 863.711 504.8C865.151 505.6 866.771 506 868.571 506ZM900.484 512L886.744 479.96H894.544L906.364 508.22H902.524L914.764 479.96H921.964L908.224 512H900.484ZM744.735 562V520H751.155L769.515 550.66H766.155L784.215 520H790.635L790.695 562H783.315L783.255 531.58H784.815L769.455 557.2H765.975L750.375 531.58H752.175V562H744.735ZM814.88 562.42C812.16 562.42 809.76 561.92 807.68 560.92C805.6 559.88 803.98 558.32 802.82 556.24C801.66 554.12 801.08 551.46 801.08 548.26V529.96H808.58V547.24C808.58 550.12 809.22 552.28 810.5 553.72C811.82 555.12 813.68 555.82 816.08 555.82C817.84 555.82 819.36 555.46 820.64 554.74C821.96 554.02 822.98 552.94 823.7 551.5C824.46 550.06 824.84 548.28 824.84 546.16V529.96H832.34V562H825.2V553.36L826.46 556C825.38 558.08 823.8 559.68 821.72 560.8C819.64 561.88 817.36 562.42 814.88 562.42ZM842.16 562V529.96H849.3V538.78L848.46 536.2C849.42 534.04 850.92 532.4 852.96 531.28C855.04 530.16 857.62 529.6 860.7 529.6V536.74C860.38 536.66 860.08 536.62 859.8 536.62C859.52 536.58 859.24 536.56 858.96 536.56C856.12 536.56 853.86 537.4 852.18 539.08C850.5 540.72 849.66 543.18 849.66 546.46V562H842.16ZM884.517 562V555.52L884.097 554.14V542.8C884.097 540.6 883.437 538.9 882.117 537.7C880.797 536.46 878.797 535.84 876.117 535.84C874.317 535.84 872.537 536.12 870.777 536.68C869.057 537.24 867.597 538.02 866.397 539.02L863.457 533.56C865.177 532.24 867.217 531.26 869.577 530.62C871.977 529.94 874.457 529.6 877.017 529.6C881.657 529.6 885.237 530.72 887.757 532.96C890.317 535.16 891.597 538.58 891.597 543.22V562H884.517ZM874.437 562.42C872.037 562.42 869.937 562.02 868.137 561.22C866.337 560.38 864.937 559.24 863.937 557.8C862.977 556.32 862.497 554.66 862.497 552.82C862.497 551.02 862.917 549.4 863.757 547.96C864.637 546.52 866.057 545.38 868.017 544.54C869.977 543.7 872.577 543.28 875.817 543.28H885.117V548.26H876.357C873.797 548.26 872.077 548.68 871.197 549.52C870.317 550.32 869.877 551.32 869.877 552.52C869.877 553.88 870.417 554.96 871.497 555.76C872.577 556.56 874.077 556.96 875.997 556.96C877.837 556.96 879.477 556.54 880.917 555.7C882.397 554.86 883.457 553.62 884.097 551.98L885.357 556.48C884.637 558.36 883.337 559.82 881.457 560.86C879.617 561.9 877.277 562.42 874.437 562.42ZM913.282 562.42C909.762 562.42 907.042 561.52 905.122 559.72C903.202 557.88 902.242 555.18 902.242 551.62V522.88H909.742V551.44C909.742 552.96 910.122 554.14 910.882 554.98C911.682 555.82 912.782 556.24 914.182 556.24C915.862 556.24 917.262 555.8 918.382 554.92L920.482 560.26C919.602 560.98 918.522 561.52 917.242 561.88C915.962 562.24 914.642 562.42 913.282 562.42ZM896.962 536.2V530.2H918.322V536.2H896.962ZM675.76 612.42C673.16 612.42 670.78 611.82 668.62 610.62C666.5 609.42 664.8 607.62 663.52 605.22C662.28 602.78 661.66 599.7 661.66 595.98C661.66 592.22 662.26 589.14 663.46 586.74C664.7 584.34 666.38 582.56 668.5 581.4C670.62 580.2 673.04 579.6 675.76 579.6C678.92 579.6 681.7 580.28 684.1 581.64C686.54 583 688.46 584.9 689.86 587.34C691.3 589.78 692.02 592.66 692.02 595.98C692.02 599.3 691.3 602.2 689.86 604.68C688.46 607.12 686.54 609.02 684.1 610.38C681.7 611.74 678.92 612.42 675.76 612.42ZM658 623.64V579.96H665.14V587.52L664.9 596.04L665.5 604.56V623.64H658ZM674.92 606C676.72 606 678.32 605.6 679.72 604.8C681.16 604 682.3 602.84 683.14 601.32C683.98 599.8 684.4 598.02 684.4 595.98C684.4 593.9 683.98 592.12 683.14 590.64C682.3 589.12 681.16 587.96 679.72 587.16C678.32 586.36 676.72 585.96 674.92 585.96C673.12 585.96 671.5 586.36 670.06 587.16C668.62 587.96 667.48 589.12 666.64 590.64C665.8 592.12 665.38 593.9 665.38 595.98C665.38 598.02 665.8 599.8 666.64 601.32C667.48 602.84 668.62 604 670.06 604.8C671.5 605.6 673.12 606 674.92 606ZM699.132 612V579.96H706.272V588.78L705.432 586.2C706.392 584.04 707.892 582.4 709.932 581.28C712.012 580.16 714.592 579.6 717.672 579.6V586.74C717.352 586.66 717.052 586.62 716.772 586.62C716.492 586.58 716.212 586.56 715.932 586.56C713.092 586.56 710.832 587.4 709.152 589.08C707.472 590.72 706.632 593.18 706.632 596.46V612H699.132ZM738.802 612.42C735.242 612.42 732.122 611.72 729.442 610.32C726.802 608.88 724.742 606.92 723.262 604.44C721.822 601.96 721.102 599.14 721.102 595.98C721.102 592.78 721.802 589.96 723.202 587.52C724.642 585.04 726.602 583.1 729.082 581.7C731.602 580.3 734.462 579.6 737.662 579.6C740.782 579.6 743.562 580.28 746.002 581.64C748.442 583 750.362 584.92 751.762 587.4C753.162 589.88 753.862 592.8 753.862 596.16C753.862 596.48 753.842 596.84 753.802 597.24C753.802 597.64 753.782 598.02 753.742 598.38H727.042V593.4H749.782L746.842 594.96C746.882 593.12 746.502 591.5 745.702 590.1C744.902 588.7 743.802 587.6 742.402 586.8C741.042 586 739.462 585.6 737.662 585.6C735.822 585.6 734.202 586 732.802 586.8C731.442 587.6 730.362 588.72 729.562 590.16C728.802 591.56 728.422 593.22 728.422 595.14V596.34C728.422 598.26 728.862 599.96 729.742 601.44C730.622 602.92 731.862 604.06 733.462 604.86C735.062 605.66 736.902 606.06 738.982 606.06C740.782 606.06 742.402 605.78 743.842 605.22C745.282 604.66 746.562 603.78 747.682 602.58L751.702 607.2C750.262 608.88 748.442 610.18 746.242 611.1C744.082 611.98 741.602 612.42 738.802 612.42ZM770.966 612.42C768.286 612.42 765.706 612.08 763.226 611.4C760.786 610.68 758.846 609.82 757.406 608.82L760.286 603.12C761.726 604.04 763.446 604.8 765.446 605.4C767.446 606 769.446 606.3 771.446 606.3C773.806 606.3 775.506 605.98 776.546 605.34C777.626 604.7 778.166 603.84 778.166 602.76C778.166 601.88 777.806 601.22 777.086 600.78C776.366 600.3 775.426 599.94 774.266 599.7C773.106 599.46 771.806 599.24 770.366 599.04C768.966 598.84 767.546 598.58 766.106 598.26C764.706 597.9 763.426 597.4 762.266 596.76C761.106 596.08 760.166 595.18 759.446 594.06C758.726 592.94 758.366 591.46 758.366 589.62C758.366 587.58 758.946 585.82 760.106 584.34C761.266 582.82 762.886 581.66 764.966 580.86C767.086 580.02 769.586 579.6 772.466 579.6C774.626 579.6 776.806 579.84 779.006 580.32C781.206 580.8 783.026 581.48 784.466 582.36L781.586 588.06C780.066 587.14 778.526 586.52 776.966 586.2C775.446 585.84 773.926 585.66 772.406 585.66C770.126 585.66 768.426 586 767.306 586.68C766.226 587.36 765.686 588.22 765.686 589.26C765.686 590.22 766.046 590.94 766.766 591.42C767.486 591.9 768.426 592.28 769.586 592.56C770.746 592.84 772.026 593.08 773.426 593.28C774.866 593.44 776.286 593.7 777.686 594.06C779.086 594.42 780.366 594.92 781.526 595.56C782.726 596.16 783.686 597.02 784.406 598.14C785.126 599.26 785.486 600.72 785.486 602.52C785.486 604.52 784.886 606.26 783.686 607.74C782.526 609.22 780.866 610.38 778.706 611.22C776.546 612.02 773.966 612.42 770.966 612.42ZM807.005 612.42C803.445 612.42 800.325 611.72 797.645 610.32C795.005 608.88 792.945 606.92 791.465 604.44C790.025 601.96 789.305 599.14 789.305 595.98C789.305 592.78 790.005 589.96 791.405 587.52C792.845 585.04 794.805 583.1 797.285 581.7C799.805 580.3 802.665 579.6 805.865 579.6C808.985 579.6 811.765 580.28 814.205 581.64C816.645 583 818.565 584.92 819.965 587.4C821.365 589.88 822.065 592.8 822.065 596.16C822.065 596.48 822.045 596.84 822.005 597.24C822.005 597.64 821.985 598.02 821.945 598.38H795.245V593.4H817.985L815.045 594.96C815.085 593.12 814.705 591.5 813.905 590.1C813.105 588.7 812.005 587.6 810.605 586.8C809.245 586 807.665 585.6 805.865 585.6C804.025 585.6 802.405 586 801.005 586.8C799.645 587.6 798.565 588.72 797.765 590.16C797.005 591.56 796.625 593.22 796.625 595.14V596.34C796.625 598.26 797.065 599.96 797.945 601.44C798.825 602.92 800.065 604.06 801.665 604.86C803.265 605.66 805.105 606.06 807.185 606.06C808.985 606.06 810.605 605.78 812.045 605.22C813.485 604.66 814.765 603.78 815.885 602.58L819.905 607.2C818.465 608.88 816.645 610.18 814.445 611.1C812.285 611.98 809.805 612.42 807.005 612.42ZM847.449 579.6C850.009 579.6 852.289 580.1 854.289 581.1C856.329 582.1 857.929 583.64 859.089 585.72C860.249 587.76 860.829 590.4 860.829 593.64V612H853.329V594.6C853.329 591.76 852.649 589.64 851.289 588.24C849.969 586.84 848.109 586.14 845.709 586.14C843.949 586.14 842.389 586.5 841.029 587.22C839.669 587.94 838.609 589.02 837.849 590.46C837.129 591.86 836.769 593.64 836.769 595.8V612H829.269V579.96H836.409V588.6L835.149 585.96C836.269 583.92 837.889 582.36 840.009 581.28C842.169 580.16 844.649 579.6 847.449 579.6ZM882.403 612.42C878.883 612.42 876.163 611.52 874.243 609.72C872.323 607.88 871.363 605.18 871.363 601.62V572.88H878.863V601.44C878.863 602.96 879.243 604.14 880.003 604.98C880.803 605.82 881.903 606.24 883.303 606.24C884.983 606.24 886.383 605.8 887.503 604.92L889.603 610.26C888.723 610.98 887.643 611.52 886.363 611.88C885.083 612.24 883.763 612.42 882.403 612.42ZM866.083 586.2V580.2H887.443V586.2H866.083ZM905.673 612.42C902.993 612.42 900.413 612.08 897.933 611.4C895.493 610.68 893.553 609.82 892.113 608.82L894.993 603.12C896.433 604.04 898.153 604.8 900.153 605.4C902.153 606 904.153 606.3 906.153 606.3C908.513 606.3 910.213 605.98 911.253 605.34C912.333 604.7 912.873 603.84 912.873 602.76C912.873 601.88 912.513 601.22 911.793 600.78C911.073 600.3 910.133 599.94 908.973 599.7C907.813 599.46 906.513 599.24 905.073 599.04C903.673 598.84 902.253 598.58 900.813 598.26C899.413 597.9 898.133 597.4 896.973 596.76C895.813 596.08 894.873 595.18 894.153 594.06C893.433 592.94 893.073 591.46 893.073 589.62C893.073 587.58 893.653 585.82 894.813 584.34C895.973 582.82 897.593 581.66 899.673 580.86C901.793 580.02 904.293 579.6 907.173 579.6C909.333 579.6 911.513 579.84 913.713 580.32C915.913 580.8 917.733 581.48 919.173 582.36L916.293 588.06C914.773 587.14 913.233 586.52 911.673 586.2C910.153 585.84 908.633 585.66 907.113 585.66C904.833 585.66 903.133 586 902.013 586.68C900.933 587.36 900.393 588.22 900.393 589.26C900.393 590.22 900.753 590.94 901.473 591.42C902.193 591.9 903.133 592.28 904.293 592.56C905.453 592.84 906.733 593.08 908.133 593.28C909.573 593.44 910.993 593.7 912.393 594.06C913.793 594.42 915.073 594.92 916.233 595.56C917.433 596.16 918.393 597.02 919.113 598.14C919.833 599.26 920.193 600.72 920.193 602.52C920.193 604.52 919.593 606.26 918.393 607.74C917.233 609.22 915.573 610.38 913.413 611.22C911.253 612.02 908.673 612.42 905.673 612.42Z" fill="#FFCDFD"/>
</svg>
