<svg width="695" height="226" viewBox="0 0 695 226" fill="none" xmlns="http://www.w3.org/2000/svg">
<path d="M507.965 36.5715L463.655 182.788C460.699 192.544 469.509 201.798 479.398 199.324L658.566 154.493C669.276 151.813 672.091 137.91 663.266 131.275L528.409 29.8886C521.123 24.4111 510.609 27.848 507.965 36.5715Z" fill="#5C2D5A"/>
<path fill-rule="evenodd" clip-rule="evenodd" d="M482.85 28.9603C490.78 2.78988 522.322 -7.52106 544.179 8.91172L679.036 110.298C705.511 130.202 697.068 171.912 664.936 179.952L485.769 224.783C456.102 232.206 429.67 204.444 438.539 175.177L482.85 28.9603ZM463.655 182.788L507.965 36.5715C510.609 27.848 521.123 24.4111 528.409 29.8886L663.266 131.275C672.091 137.91 669.276 151.813 658.566 154.493L479.398 199.324C469.509 201.798 460.699 192.544 463.655 182.788Z" fill="#F19FED"/>
<path d="M293.802 102.043C293.802 117.262 281.465 129.599 266.246 129.599C251.027 129.599 238.69 117.262 238.69 102.043C238.69 86.824 251.027 74.4868 266.246 74.4868C281.465 74.4868 293.802 86.824 293.802 102.043Z" fill="#F19FED"/>
<path fill-rule="evenodd" clip-rule="evenodd" d="M255.748 98.0958C255.748 95.2024 258.094 92.8568 260.987 92.8568C262.743 92.8568 264.382 93.7362 265.353 95.1989L269.651 101.676C270.623 103.14 269.908 105.128 268.226 105.638L259.134 108.395C257.449 108.907 255.748 107.645 255.748 105.884V98.0958ZM257.611 136.282C256.505 136.617 255.748 137.637 255.748 138.793V158.467C255.748 159.916 254.573 161.091 253.124 161.091H232.129C230.68 161.091 229.505 159.916 229.505 158.467V98.0958C229.505 80.7083 243.6 66.613 260.987 66.613C271.537 66.613 281.386 71.8971 287.219 80.6873L296.741 95.0355C297.382 96.0012 298.581 96.4322 299.69 96.0958L318.975 90.247C320.362 89.8264 321.827 90.6098 322.248 91.9968L328.341 112.088C328.762 113.475 327.978 114.941 326.591 115.361L316.347 118.468C314.665 118.979 313.95 120.966 314.922 122.431L328.216 142.463C329.017 143.671 328.688 145.299 327.48 146.101L309.987 157.71C308.779 158.512 307.151 158.182 306.349 156.975L287.831 129.071C287.19 128.105 285.992 127.674 284.883 128.011L257.611 136.282Z" fill="#5C2D5A"/>
<path fill-rule="evenodd" clip-rule="evenodd" d="M275.431 151.445V158.467C275.431 170.787 265.444 180.774 253.124 180.774H232.129C219.809 180.774 209.822 170.786 209.822 158.467V98.0958C209.822 69.8377 232.729 46.9301 260.987 46.9301C278.133 46.9301 294.139 55.5178 303.619 69.8037L287.219 80.6873C281.386 71.8971 271.537 66.613 260.987 66.613C243.6 66.613 229.505 80.7083 229.505 98.0958V158.467C229.505 159.916 230.68 161.091 232.129 161.091H253.124C254.573 161.091 255.748 159.916 255.748 158.467V138.793C255.748 137.637 256.505 136.617 257.611 136.282L284.883 128.011C285.992 127.674 287.19 128.105 287.831 129.071L306.349 156.975C307.151 158.182 308.779 158.512 309.987 157.71L327.48 146.101C328.688 145.299 329.017 143.671 328.216 142.463L314.922 122.431C313.95 120.966 314.665 118.979 316.347 118.468L326.591 115.361C327.5 115.086 328.15 114.362 328.371 113.505C328.488 113.054 328.486 112.567 328.341 112.088L322.248 91.9968C321.827 90.6098 320.362 89.8264 318.975 90.247L299.69 96.0958C298.581 96.4322 297.382 96.0012 296.741 95.0355L287.219 80.6873L303.619 69.8037L306.123 73.5765L313.262 71.4113C325.052 67.8358 337.508 74.4946 341.084 86.2843L347.177 106.376C349.556 114.219 347.405 122.357 342.227 127.98L344.616 131.579C351.428 141.845 348.629 155.689 338.364 162.501L320.871 174.11C310.606 180.923 296.761 178.124 289.949 167.858L278.449 150.53L275.431 151.445Z" fill="#F19FED"/>
<path fill-rule="evenodd" clip-rule="evenodd" d="M70.0752 92.8573C55.4561 92.8573 44.1926 105.75 46.1553 120.237L53.8551 177.068C54.0496 178.504 53.0431 179.826 51.6068 180.021L30.8018 182.84C29.3655 183.034 28.0434 182.028 27.8488 180.591L20.149 123.76C16.0524 93.5228 39.5617 66.6134 70.0752 66.6134H80.611C97.3855 66.6134 112.035 77.9624 116.227 94.2047C121.306 113.887 109.458 133.957 89.7714 139.019L69.3212 144.278C67.9174 144.639 66.4868 143.794 66.1259 142.39L60.8972 122.056C60.5363 120.653 61.3816 119.222 62.7854 118.861L83.2356 113.602C88.8759 112.152 92.2705 106.402 90.8153 100.762C89.6144 96.1089 85.4171 92.8573 80.611 92.8573H70.0752Z" fill="#5C2D5A"/>
<path fill-rule="evenodd" clip-rule="evenodd" d="M62.7854 118.861C61.3816 119.222 60.5363 120.653 60.8972 122.056L66.1259 142.39C66.483 143.779 67.8874 144.621 69.2768 144.289C69.2916 144.285 69.3064 144.282 69.3212 144.278L89.7714 139.019C109.458 133.957 121.306 113.887 116.227 94.2047C112.035 77.9624 97.3855 66.6134 80.611 66.6134H70.0752C39.5617 66.6134 16.0524 93.5228 20.149 123.76L27.8488 180.591C28.0434 182.028 29.3655 183.034 30.8018 182.84L51.6068 180.021C53.0431 179.826 54.0496 178.504 53.8551 177.068L46.1553 120.237C45.3267 114.121 46.8553 108.289 49.9983 103.592C54.3005 97.1621 61.6276 92.8573 70.0752 92.8573H80.611C85.4171 92.8573 89.6144 96.1089 90.8153 100.762C92.2705 106.402 88.8759 112.152 83.2356 113.602L62.7854 118.861ZM71.9211 163.807L73.3598 174.425C75.0138 186.634 66.4578 197.872 54.2493 199.526L33.4443 202.344C21.2359 203.998 9.99813 195.442 8.34408 183.234L0.64434 126.403C-5.05275 84.3526 27.641 46.9305 70.0752 46.9305H80.611C106.362 46.9305 128.851 64.3525 135.285 89.2864C143.082 119.501 124.894 150.311 94.6732 158.082L74.223 163.341C73.4558 163.538 72.6877 163.693 71.9211 163.807Z" fill="#F19FED"/>
<path fill-rule="evenodd" clip-rule="evenodd" d="M135.026 114.861V82.3597C135.026 80.9103 136.201 79.7354 137.65 79.7354H158.646C160.095 79.7354 161.27 80.9103 161.27 82.3597V114.861C161.27 132.92 177.447 146.396 194.879 143.637C196.311 143.411 197.738 144.252 198.09 145.658L203.182 166.027C203.533 167.433 202.675 168.865 201.254 169.152C167.238 176.008 135.026 149.998 135.026 114.861Z" fill="#5C2D5A"/>
<path fill-rule="evenodd" clip-rule="evenodd" d="M115.343 114.861V82.3597C115.343 70.0398 125.331 60.0525 137.65 60.0525H158.646C170.966 60.0525 180.953 70.0398 180.953 82.3597V114.861C180.953 120.693 186.191 125.084 191.803 124.196C202.186 122.553 214.093 128.517 217.185 140.885L222.277 161.253C225.215 173.006 218.111 185.832 205.143 188.446C159.008 197.746 115.343 162.5 115.343 114.861ZM183.855 169.875C157.022 166.699 135.026 143.896 135.026 114.861V82.3597C135.026 80.9103 136.201 79.7354 137.65 79.7354H158.646C160.095 79.7354 161.27 80.9103 161.27 82.3597V114.861C161.27 132.92 177.447 146.396 194.879 143.637C196.311 143.411 197.738 144.252 198.09 145.658L203.182 166.027C203.533 167.433 202.675 168.865 201.254 169.152C196.346 170.141 191.476 170.446 186.735 170.138C185.779 170.076 184.828 169.989 183.883 169.878C183.874 169.877 183.865 169.876 183.855 169.875Z" fill="#F19FED"/>
<path fill-rule="evenodd" clip-rule="evenodd" d="M378.165 119.497C379.571 119.963 380.392 121.453 379.954 122.868L366.028 167.824C365.599 169.208 366.374 170.678 367.758 171.107L387.813 177.32C389.197 177.748 390.667 176.974 391.096 175.589L426.941 59.8812C427.37 58.4968 426.595 57.0267 425.21 56.5978L405.156 50.3852C403.771 49.9563 402.301 50.7309 401.872 52.1154L389.262 92.8234C388.85 94.1513 387.468 94.9417 386.153 94.4907C379.879 92.3394 375.74 88.3281 372.782 83.7507C368.316 76.8394 366.377 68.1613 366.03 61.5289C365.955 60.0815 364.801 58.8915 363.351 58.8731L342.358 58.6074C340.909 58.589 339.714 59.7461 339.755 61.195C340.047 71.5297 342.816 85.7314 350.74 97.9945C356.834 107.425 365.845 115.416 378.165 119.497Z" fill="#5C2D5A"/>
<path fill-rule="evenodd" clip-rule="evenodd" d="M342.231 78.2898C342.191 78.1394 342.153 77.9891 342.114 77.839C340.585 71.8355 339.893 66.0828 339.755 61.195C339.714 59.7461 340.909 58.589 342.358 58.6074L363.351 58.8731C364.801 58.8915 365.955 60.0815 366.03 61.5289C366.353 67.7119 368.06 75.6727 371.909 82.3226C372.042 82.553 372.178 82.7818 372.317 83.009C372.469 83.2583 372.624 83.5056 372.782 83.7507C374.011 85.6531 375.445 87.4577 377.151 89.0717C379.549 91.3411 382.486 93.2335 386.153 94.4907C387.468 94.9417 388.85 94.1513 389.262 92.8234L401.872 52.1154C402.301 50.7309 403.771 49.9563 405.156 50.3852L425.21 56.5978C426.595 57.0267 427.37 58.4968 426.941 59.8812L391.096 175.589C390.667 176.974 389.197 177.748 387.813 177.32L367.758 171.107C366.374 170.678 365.599 169.208 366.028 167.824L379.954 122.868C380.392 121.453 379.571 119.963 378.165 119.497C365.845 115.416 356.834 107.425 350.74 97.9945C346.657 91.6764 343.943 84.8432 342.231 78.2898C342.231 78.2897 342.231 78.29 342.231 78.2898ZM382.092 49.4503L383.071 46.2911C386.716 34.5229 399.212 27.9381 410.98 31.5837L431.035 37.7964C442.803 41.442 449.388 53.9374 445.742 65.7056L409.898 181.414C406.252 193.182 393.757 199.767 381.989 196.121L361.934 189.908C350.165 186.263 343.581 173.767 347.226 161.999L356.803 131.086C347.232 125.127 339.746 117.247 334.208 108.677C323.811 92.5881 320.442 74.5937 320.08 61.7499C319.708 48.5658 330.534 38.7733 342.607 38.9261L363.6 39.1918C371.694 39.2943 378.273 43.516 382.092 49.4503Z" fill="#F19FED"/>
</svg>
