<svg width="396" height="80" viewBox="0 0 396 80" fill="none" xmlns="http://www.w3.org/2000/svg">
<path d="M198 8L198 74" stroke="#F19FED" stroke-width="5" stroke-dasharray="10 10"/>
<path d="M225.49 24.21C223.73 24.21 222.37 23.76 221.41 22.86C220.45 21.94 219.97 20.59 219.97 18.81V4.44H223.72V18.72C223.72 19.48 223.91 20.07 224.29 20.49C224.69 20.91 225.24 21.12 225.94 21.12C226.78 21.12 227.48 20.9 228.04 20.46L229.09 23.13C228.65 23.49 228.11 23.76 227.47 23.94C226.83 24.12 226.17 24.21 225.49 24.21ZM217.33 11.1V8.1H228.01V11.1H217.33ZM241.265 7.8C242.545 7.8 243.685 8.05 244.685 8.55C245.705 9.05 246.505 9.82 247.085 10.86C247.665 11.88 247.955 13.2 247.955 14.82V24H244.205V15.3C244.205 13.88 243.865 12.82 243.185 12.12C242.525 11.42 241.595 11.07 240.395 11.07C239.515 11.07 238.735 11.25 238.055 11.61C237.375 11.97 236.845 12.51 236.465 13.23C236.105 13.93 235.925 14.82 235.925 15.9V24H232.175V1.74H235.925V12.3L235.115 10.98C235.675 9.96 236.485 9.18 237.545 8.64C238.625 8.08 239.865 7.8 241.265 7.8ZM260.271 24.21C258.491 24.21 256.931 23.86 255.591 23.16C254.271 22.44 253.241 21.46 252.501 20.22C251.781 18.98 251.421 17.57 251.421 15.99C251.421 14.39 251.771 12.98 252.471 11.76C253.191 10.52 254.171 9.55 255.411 8.85C256.671 8.15 258.101 7.8 259.701 7.8C261.261 7.8 262.651 8.14 263.871 8.82C265.091 9.5 266.051 10.46 266.751 11.7C267.451 12.94 267.801 14.4 267.801 16.08C267.801 16.24 267.791 16.42 267.771 16.62C267.771 16.82 267.761 17.01 267.741 17.19H254.391V14.7H265.761L264.291 15.48C264.311 14.56 264.121 13.75 263.721 13.05C263.321 12.35 262.771 11.8 262.071 11.4C261.391 11 260.601 10.8 259.701 10.8C258.781 10.8 257.971 11 257.271 11.4C256.591 11.8 256.051 12.36 255.651 13.08C255.271 13.78 255.081 14.61 255.081 15.57V16.17C255.081 17.13 255.301 17.98 255.741 18.72C256.181 19.46 256.801 20.03 257.601 20.43C258.401 20.83 259.321 21.03 260.361 21.03C261.261 21.03 262.071 20.89 262.791 20.61C263.511 20.33 264.151 19.89 264.711 19.29L266.721 21.6C266.001 22.44 265.091 23.09 263.991 23.55C262.911 23.99 261.671 24.21 260.271 24.21ZM228.34 49.21C227.04 49.21 225.85 48.91 224.77 48.31C223.71 47.71 222.86 46.81 222.22 45.61C221.6 44.39 221.29 42.85 221.29 40.99C221.29 39.11 221.59 37.57 222.19 36.37C222.81 35.17 223.65 34.28 224.71 33.7C225.77 33.1 226.98 32.8 228.34 32.8C229.92 32.8 231.31 33.14 232.51 33.82C233.73 34.5 234.69 35.45 235.39 36.67C236.11 37.89 236.47 39.33 236.47 40.99C236.47 42.65 236.11 44.1 235.39 45.34C234.69 46.56 233.73 47.51 232.51 48.19C231.31 48.87 229.92 49.21 228.34 49.21ZM219.46 54.82V32.98H223.03V36.76L222.91 41.02L223.21 45.28V54.82H219.46ZM227.92 46C228.82 46 229.62 45.8 230.32 45.4C231.04 45 231.61 44.42 232.03 43.66C232.45 42.9 232.66 42.01 232.66 40.99C232.66 39.95 232.45 39.06 232.03 38.32C231.61 37.56 231.04 36.98 230.32 36.58C229.62 36.18 228.82 35.98 227.92 35.98C227.02 35.98 226.21 36.18 225.49 36.58C224.77 36.98 224.2 37.56 223.78 38.32C223.36 39.06 223.15 39.95 223.15 40.99C223.15 42.01 223.36 42.9 223.78 43.66C224.2 44.42 224.77 45 225.49 45.4C226.21 45.8 227.02 46 227.92 46ZM247.226 49.21C245.586 49.21 244.126 48.86 242.846 48.16C241.566 47.44 240.556 46.46 239.816 45.22C239.076 43.98 238.706 42.57 238.706 40.99C238.706 39.39 239.076 37.98 239.816 36.76C240.556 35.52 241.566 34.55 242.846 33.85C244.126 33.15 245.586 32.8 247.226 32.8C248.886 32.8 250.356 33.15 251.636 33.85C252.936 34.55 253.946 35.51 254.666 36.73C255.406 37.95 255.776 39.37 255.776 40.99C255.776 42.57 255.406 43.98 254.666 45.22C253.946 46.46 252.936 47.44 251.636 48.16C250.356 48.86 248.886 49.21 247.226 49.21ZM247.226 46C248.146 46 248.966 45.8 249.686 45.4C250.406 45 250.966 44.42 251.366 43.66C251.786 42.9 251.996 42.01 251.996 40.99C251.996 39.95 251.786 39.06 251.366 38.32C250.966 37.56 250.406 36.98 249.686 36.58C248.966 36.18 248.156 35.98 247.256 35.98C246.336 35.98 245.516 36.18 244.796 36.58C244.096 36.98 243.536 37.56 243.116 38.32C242.696 39.06 242.486 39.95 242.486 40.99C242.486 42.01 242.696 42.9 243.116 43.66C243.536 44.42 244.096 45 244.796 45.4C245.516 45.8 246.326 46 247.226 46ZM259.362 49V32.98H262.932V37.39L262.512 36.1C262.992 35.02 263.742 34.2 264.762 33.64C265.802 33.08 267.092 32.8 268.632 32.8V36.37C268.472 36.33 268.322 36.31 268.182 36.31C268.042 36.29 267.902 36.28 267.762 36.28C266.342 36.28 265.212 36.7 264.372 37.54C263.532 38.36 263.112 39.59 263.112 41.23V49H259.362ZM278.429 49.21C276.669 49.21 275.309 48.76 274.349 47.86C273.389 46.94 272.909 45.59 272.909 43.81V29.44H276.659V43.72C276.659 44.48 276.849 45.07 277.229 45.49C277.629 45.91 278.179 46.12 278.879 46.12C279.719 46.12 280.419 45.9 280.979 45.46L282.029 48.13C281.589 48.49 281.049 48.76 280.409 48.94C279.769 49.12 279.109 49.21 278.429 49.21ZM270.269 36.1V33.1H280.949V36.1H270.269ZM285.624 49V32.08C285.624 30.4 286.114 29.06 287.094 28.06C288.094 27.04 289.514 26.53 291.354 26.53C292.014 26.53 292.634 26.6 293.214 26.74C293.814 26.88 294.314 27.1 294.714 27.4L293.694 30.22C293.414 30 293.094 29.84 292.734 29.74C292.374 29.62 292.004 29.56 291.624 29.56C290.844 29.56 290.254 29.78 289.854 30.22C289.454 30.64 289.254 31.28 289.254 32.14V33.94L289.374 35.62V49H285.624ZM282.984 36.1V33.1H293.664V36.1H282.984ZM303.154 49.21C301.514 49.21 300.054 48.86 298.774 48.16C297.494 47.44 296.484 46.46 295.744 45.22C295.004 43.98 294.634 42.57 294.634 40.99C294.634 39.39 295.004 37.98 295.744 36.76C296.484 35.52 297.494 34.55 298.774 33.85C300.054 33.15 301.514 32.8 303.154 32.8C304.814 32.8 306.284 33.15 307.564 33.85C308.864 34.55 309.874 35.51 310.594 36.73C311.334 37.95 311.704 39.37 311.704 40.99C311.704 42.57 311.334 43.98 310.594 45.22C309.874 46.46 308.864 47.44 307.564 48.16C306.284 48.86 304.814 49.21 303.154 49.21ZM303.154 46C304.074 46 304.894 45.8 305.614 45.4C306.334 45 306.894 44.42 307.294 43.66C307.714 42.9 307.924 42.01 307.924 40.99C307.924 39.95 307.714 39.06 307.294 38.32C306.894 37.56 306.334 36.98 305.614 36.58C304.894 36.18 304.084 35.98 303.184 35.98C302.264 35.98 301.444 36.18 300.724 36.58C300.024 36.98 299.464 37.56 299.044 38.32C298.624 39.06 298.414 39.95 298.414 40.99C298.414 42.01 298.624 42.9 299.044 43.66C299.464 44.42 300.024 45 300.724 45.4C301.444 45.8 302.254 46 303.154 46ZM315.29 49V26.74H319.04V49H315.29ZM323.962 49V32.98H327.712V49H323.962ZM325.852 30.34C325.152 30.34 324.572 30.12 324.112 29.68C323.672 29.24 323.452 28.71 323.452 28.09C323.452 27.45 323.672 26.92 324.112 26.5C324.572 26.06 325.152 25.84 325.852 25.84C326.552 25.84 327.122 26.05 327.562 26.47C328.022 26.87 328.252 27.38 328.252 28C328.252 28.66 328.032 29.22 327.592 29.68C327.152 30.12 326.572 30.34 325.852 30.34ZM339.834 49.21C338.194 49.21 336.734 48.86 335.454 48.16C334.174 47.44 333.164 46.46 332.424 45.22C331.684 43.98 331.314 42.57 331.314 40.99C331.314 39.39 331.684 37.98 332.424 36.76C333.164 35.52 334.174 34.55 335.454 33.85C336.734 33.15 338.194 32.8 339.834 32.8C341.494 32.8 342.964 33.15 344.244 33.85C345.544 34.55 346.554 35.51 347.274 36.73C348.014 37.95 348.384 39.37 348.384 40.99C348.384 42.57 348.014 43.98 347.274 45.22C346.554 46.46 345.544 47.44 344.244 48.16C342.964 48.86 341.494 49.21 339.834 49.21ZM339.834 46C340.754 46 341.574 45.8 342.294 45.4C343.014 45 343.574 44.42 343.974 43.66C344.394 42.9 344.604 42.01 344.604 40.99C344.604 39.95 344.394 39.06 343.974 38.32C343.574 37.56 343.014 36.98 342.294 36.58C341.574 36.18 340.764 35.98 339.864 35.98C338.944 35.98 338.124 36.18 337.404 36.58C336.704 36.98 336.144 37.56 335.724 38.32C335.304 39.06 335.094 39.95 335.094 40.99C335.094 42.01 335.304 42.9 335.724 43.66C336.144 44.42 336.704 45 337.404 45.4C338.124 45.8 338.934 46 339.834 46ZM224.41 74.21C223.07 74.21 221.78 74.04 220.54 73.7C219.32 73.34 218.35 72.91 217.63 72.41L219.07 69.56C219.79 70.02 220.65 70.4 221.65 70.7C222.65 71 223.65 71.15 224.65 71.15C225.83 71.15 226.68 70.99 227.2 70.67C227.74 70.35 228.01 69.92 228.01 69.38C228.01 68.94 227.83 68.61 227.47 68.39C227.11 68.15 226.64 67.97 226.06 67.85C225.48 67.73 224.83 67.62 224.11 67.52C223.41 67.42 222.7 67.29 221.98 67.13C221.28 66.95 220.64 66.7 220.06 66.38C219.48 66.04 219.01 65.59 218.65 65.03C218.29 64.47 218.11 63.73 218.11 62.81C218.11 61.79 218.4 60.91 218.98 60.17C219.56 59.41 220.37 58.83 221.41 58.43C222.47 58.01 223.72 57.8 225.16 57.8C226.24 57.8 227.33 57.92 228.43 58.16C229.53 58.4 230.44 58.74 231.16 59.18L229.72 62.03C228.96 61.57 228.19 61.26 227.41 61.1C226.65 60.92 225.89 60.83 225.13 60.83C223.99 60.83 223.14 61 222.58 61.34C222.04 61.68 221.77 62.11 221.77 62.63C221.77 63.11 221.95 63.47 222.31 63.71C222.67 63.95 223.14 64.14 223.72 64.28C224.3 64.42 224.94 64.54 225.64 64.64C226.36 64.72 227.07 64.85 227.77 65.03C228.47 65.21 229.11 65.46 229.69 65.78C230.29 66.08 230.77 66.51 231.13 67.07C231.49 67.63 231.67 68.36 231.67 69.26C231.67 70.26 231.37 71.13 230.77 71.87C230.19 72.61 229.36 73.19 228.28 73.61C227.2 74.01 225.91 74.21 224.41 74.21ZM243.989 57.8C245.269 57.8 246.409 58.05 247.409 58.55C248.429 59.05 249.229 59.82 249.809 60.86C250.389 61.88 250.679 63.2 250.679 64.82V74H246.929V65.3C246.929 63.88 246.589 62.82 245.909 62.12C245.249 61.42 244.319 61.07 243.119 61.07C242.239 61.07 241.459 61.25 240.779 61.61C240.099 61.97 239.569 62.51 239.189 63.23C238.829 63.93 238.649 64.82 238.649 65.9V74H234.899V51.74H238.649V62.3L237.839 60.98C238.399 59.96 239.209 59.18 240.269 58.64C241.349 58.08 242.589 57.8 243.989 57.8ZM262.666 74.21C261.026 74.21 259.566 73.86 258.286 73.16C257.006 72.44 255.996 71.46 255.256 70.22C254.516 68.98 254.146 67.57 254.146 65.99C254.146 64.39 254.516 62.98 255.256 61.76C255.996 60.52 257.006 59.55 258.286 58.85C259.566 58.15 261.026 57.8 262.666 57.8C264.326 57.8 265.796 58.15 267.076 58.85C268.376 59.55 269.386 60.51 270.106 61.73C270.846 62.95 271.216 64.37 271.216 65.99C271.216 67.57 270.846 68.98 270.106 70.22C269.386 71.46 268.376 72.44 267.076 73.16C265.796 73.86 264.326 74.21 262.666 74.21ZM262.666 71C263.586 71 264.406 70.8 265.126 70.4C265.846 70 266.406 69.42 266.806 68.66C267.226 67.9 267.436 67.01 267.436 65.99C267.436 64.95 267.226 64.06 266.806 63.32C266.406 62.56 265.846 61.98 265.126 61.58C264.406 61.18 263.596 60.98 262.696 60.98C261.776 60.98 260.956 61.18 260.236 61.58C259.536 61.98 258.976 62.56 258.556 63.32C258.136 64.06 257.926 64.95 257.926 65.99C257.926 67.01 258.136 67.9 258.556 68.66C258.976 69.42 259.536 70 260.236 70.4C260.956 70.8 261.766 71 262.666 71ZM277.902 74L272.022 57.98H275.562L280.602 72.11H278.922L284.202 57.98H287.352L292.482 72.11H290.832L296.022 57.98H299.352L293.442 74H289.842L285.162 61.49H286.272L281.502 74H277.902Z" fill="#F19FED"/>
<path d="M55.9941 19.05L55.7841 14.43L66.7941 3H71.1741L62.0241 12.72L59.8641 15.09L55.9941 19.05ZM52.5141 24V3H56.4141V24H52.5141ZM67.1541 24L59.1141 14.43L61.6941 11.58L71.7141 24H67.1541ZM83.4987 24V20.76L83.2887 20.07V14.4C83.2887 13.3 82.9587 12.45 82.2987 11.85C81.6387 11.23 80.6387 10.92 79.2987 10.92C78.3987 10.92 77.5087 11.06 76.6287 11.34C75.7687 11.62 75.0387 12.01 74.4387 12.51L72.9687 9.78C73.8287 9.12 74.8487 8.63 76.0287 8.31C77.2287 7.97 78.4687 7.8 79.7487 7.8C82.0687 7.8 83.8587 8.36 85.1187 9.48C86.3987 10.58 87.0387 12.29 87.0387 14.61V24H83.4987ZM78.4587 24.21C77.2587 24.21 76.2087 24.01 75.3087 23.61C74.4087 23.19 73.7087 22.62 73.2087 21.9C72.7287 21.16 72.4887 20.33 72.4887 19.41C72.4887 18.51 72.6987 17.7 73.1187 16.98C73.5587 16.26 74.2687 15.69 75.2487 15.27C76.2287 14.85 77.5287 14.64 79.1487 14.64H83.7987V17.13H79.4187C78.1387 17.13 77.2787 17.34 76.8387 17.76C76.3987 18.16 76.1787 18.66 76.1787 19.26C76.1787 19.94 76.4487 20.48 76.9887 20.88C77.5287 21.28 78.2787 21.48 79.2387 21.48C80.1587 21.48 80.9787 21.27 81.6987 20.85C82.4387 20.43 82.9687 19.81 83.2887 18.99L83.9187 21.24C83.5587 22.18 82.9087 22.91 81.9687 23.43C81.0487 23.95 79.8787 24.21 78.4587 24.21ZM91.8513 24V7.98H95.4213V12.39L95.0013 11.1C95.4813 10.02 96.2313 9.2 97.2513 8.64C98.2913 8.08 99.5813 7.8 101.121 7.8V11.37C100.961 11.33 100.811 11.31 100.671 11.31C100.531 11.29 100.391 11.28 100.251 11.28C98.8313 11.28 97.7013 11.7 96.8613 12.54C96.0213 13.36 95.6013 14.59 95.6013 16.23V24H91.8513ZM104.303 24V7.98H108.053V24H104.303ZM106.193 5.34C105.493 5.34 104.913 5.12 104.453 4.68C104.013 4.24 103.793 3.71 103.793 3.09C103.793 2.45 104.013 1.92 104.453 1.5C104.913 1.06 105.493 0.84 106.193 0.84C106.893 0.84 107.463 1.05 107.903 1.47C108.363 1.87 108.593 2.38 108.593 3C108.593 3.66 108.373 4.22 107.933 4.68C107.493 5.12 106.913 5.34 106.193 5.34ZM133.194 7.8C134.474 7.8 135.604 8.05 136.584 8.55C137.584 9.05 138.364 9.82 138.924 10.86C139.484 11.88 139.764 13.2 139.764 14.82V24H136.014V15.3C136.014 13.88 135.704 12.82 135.084 12.12C134.464 11.42 133.574 11.07 132.414 11.07C131.594 11.07 130.864 11.25 130.224 11.61C129.604 11.97 129.114 12.5 128.754 13.2C128.414 13.9 128.244 14.79 128.244 15.87V24H124.494V15.3C124.494 13.88 124.184 12.82 123.564 12.12C122.944 11.42 122.054 11.07 120.894 11.07C120.074 11.07 119.344 11.25 118.704 11.61C118.084 11.97 117.594 12.5 117.234 13.2C116.894 13.9 116.724 14.79 116.724 15.87V24H112.974V7.98H116.544V12.24L115.914 10.98C116.454 9.94 117.234 9.15 118.254 8.61C119.294 8.07 120.474 7.8 121.794 7.8C123.294 7.8 124.594 8.17 125.694 8.91C126.814 9.65 127.554 10.77 127.914 12.27L126.444 11.76C126.964 10.56 127.824 9.6 129.024 8.88C130.224 8.16 131.614 7.8 133.194 7.8ZM151.786 24.21C150.146 24.21 148.686 23.86 147.406 23.16C146.126 22.44 145.116 21.46 144.376 20.22C143.636 18.98 143.266 17.57 143.266 15.99C143.266 14.39 143.636 12.98 144.376 11.76C145.116 10.52 146.126 9.55 147.406 8.85C148.686 8.15 150.146 7.8 151.786 7.8C153.446 7.8 154.916 8.15 156.196 8.85C157.496 9.55 158.506 10.51 159.226 11.73C159.966 12.95 160.336 14.37 160.336 15.99C160.336 17.57 159.966 18.98 159.226 20.22C158.506 21.46 157.496 22.44 156.196 23.16C154.916 23.86 153.446 24.21 151.786 24.21ZM151.786 21C152.706 21 153.526 20.8 154.246 20.4C154.966 20 155.526 19.42 155.926 18.66C156.346 17.9 156.556 17.01 156.556 15.99C156.556 14.95 156.346 14.06 155.926 13.32C155.526 12.56 154.966 11.98 154.246 11.58C153.526 11.18 152.716 10.98 151.816 10.98C150.896 10.98 150.076 11.18 149.356 11.58C148.656 11.98 148.096 12.56 147.676 13.32C147.256 14.06 147.046 14.95 147.046 15.99C147.046 17.01 147.256 17.9 147.676 18.66C148.096 19.42 148.656 20 149.356 20.4C150.076 20.8 150.886 21 151.786 21ZM167.742 24L160.872 7.98H164.772L170.682 22.11H168.762L174.882 7.98H178.482L171.612 24H167.742ZM89.8676 49V28H93.0776L102.258 43.33H100.578L109.608 28H112.818L112.848 49H109.158L109.128 33.79H109.908L102.228 46.6H100.488L92.6876 33.79H93.5876V49H89.8676ZM124.94 49.21C123.58 49.21 122.38 48.96 121.34 48.46C120.3 47.94 119.49 47.16 118.91 46.12C118.33 45.06 118.04 43.73 118.04 42.13V32.98H121.79V41.62C121.79 43.06 122.11 44.14 122.75 44.86C123.41 45.56 124.34 45.91 125.54 45.91C126.42 45.91 127.18 45.73 127.82 45.37C128.48 45.01 128.99 44.47 129.35 43.75C129.73 43.03 129.92 42.14 129.92 41.08V32.98H133.67V49H130.1V44.68L130.73 46C130.19 47.04 129.4 47.84 128.36 48.4C127.32 48.94 126.18 49.21 124.94 49.21ZM138.58 49V32.98H142.15V37.39L141.73 36.1C142.21 35.02 142.96 34.2 143.98 33.64C145.02 33.08 146.31 32.8 147.85 32.8V36.37C147.69 36.33 147.54 36.31 147.4 36.31C147.26 36.29 147.12 36.28 146.98 36.28C145.56 36.28 144.43 36.7 143.59 37.54C142.75 38.36 142.33 39.59 142.33 41.23V49H138.58ZM159.758 49V45.76L159.548 45.07V39.4C159.548 38.3 159.218 37.45 158.558 36.85C157.898 36.23 156.898 35.92 155.558 35.92C154.658 35.92 153.768 36.06 152.888 36.34C152.028 36.62 151.298 37.01 150.698 37.51L149.228 34.78C150.088 34.12 151.108 33.63 152.288 33.31C153.488 32.97 154.728 32.8 156.008 32.8C158.328 32.8 160.118 33.36 161.378 34.48C162.658 35.58 163.298 37.29 163.298 39.61V49H159.758ZM154.718 49.21C153.518 49.21 152.468 49.01 151.568 48.61C150.668 48.19 149.968 47.62 149.468 46.9C148.988 46.16 148.748 45.33 148.748 44.41C148.748 43.51 148.958 42.7 149.378 41.98C149.818 41.26 150.528 40.69 151.508 40.27C152.488 39.85 153.788 39.64 155.408 39.64H160.058V42.13H155.678C154.398 42.13 153.538 42.34 153.098 42.76C152.658 43.16 152.438 43.66 152.438 44.26C152.438 44.94 152.708 45.48 153.248 45.88C153.788 46.28 154.538 46.48 155.498 46.48C156.418 46.48 157.238 46.27 157.958 45.85C158.698 45.43 159.228 44.81 159.548 43.99L160.178 46.24C159.818 47.18 159.168 47.91 158.228 48.43C157.308 48.95 156.138 49.21 154.718 49.21ZM174.141 49.21C172.381 49.21 171.021 48.76 170.061 47.86C169.101 46.94 168.621 45.59 168.621 43.81V29.44H172.371V43.72C172.371 44.48 172.561 45.07 172.941 45.49C173.341 45.91 173.891 46.12 174.591 46.12C175.431 46.12 176.131 45.9 176.691 45.46L177.741 48.13C177.301 48.49 176.761 48.76 176.121 48.94C175.481 49.12 174.821 49.21 174.141 49.21ZM165.981 36.1V33.1H176.661V36.1H165.981ZM55.3798 74.21C54.0798 74.21 52.8898 73.91 51.8098 73.31C50.7498 72.71 49.8998 71.81 49.2598 70.61C48.6398 69.39 48.3298 67.85 48.3298 65.99C48.3298 64.11 48.6298 62.57 49.2298 61.37C49.8498 60.17 50.6898 59.28 51.7498 58.7C52.8098 58.1 54.0198 57.8 55.3798 57.8C56.9598 57.8 58.3498 58.14 59.5498 58.82C60.7698 59.5 61.7298 60.45 62.4298 61.67C63.1498 62.89 63.5098 64.33 63.5098 65.99C63.5098 67.65 63.1498 69.1 62.4298 70.34C61.7298 71.56 60.7698 72.51 59.5498 73.19C58.3498 73.87 56.9598 74.21 55.3798 74.21ZM46.4998 79.82V57.98H50.0698V61.76L49.9498 66.02L50.2498 70.28V79.82H46.4998ZM54.9598 71C55.8598 71 56.6598 70.8 57.3598 70.4C58.0798 70 58.6498 69.42 59.0698 68.66C59.4898 67.9 59.6998 67.01 59.6998 65.99C59.6998 64.95 59.4898 64.06 59.0698 63.32C58.6498 62.56 58.0798 61.98 57.3598 61.58C56.6598 61.18 55.8598 60.98 54.9598 60.98C54.0598 60.98 53.2498 61.18 52.5298 61.58C51.8098 61.98 51.2398 62.56 50.8198 63.32C50.3998 64.06 50.1898 64.95 50.1898 65.99C50.1898 67.01 50.3998 67.9 50.8198 68.66C51.2398 69.42 51.8098 70 52.5298 70.4C53.2498 70.8 54.0598 71 54.9598 71ZM67.0662 74V57.98H70.6362V62.39L70.2162 61.1C70.6962 60.02 71.4462 59.2 72.4662 58.64C73.5062 58.08 74.7962 57.8 76.3362 57.8V61.37C76.1762 61.33 76.0262 61.31 75.8862 61.31C75.7462 61.29 75.6062 61.28 75.4662 61.28C74.0462 61.28 72.9162 61.7 72.0762 62.54C71.2362 63.36 70.8162 64.59 70.8162 66.23V74H67.0662ZM86.9009 74.21C85.1209 74.21 83.5609 73.86 82.2209 73.16C80.9009 72.44 79.8709 71.46 79.1309 70.22C78.4109 68.98 78.0509 67.57 78.0509 65.99C78.0509 64.39 78.4009 62.98 79.1009 61.76C79.8209 60.52 80.8009 59.55 82.0409 58.85C83.3009 58.15 84.7309 57.8 86.3309 57.8C87.8909 57.8 89.2809 58.14 90.5009 58.82C91.7209 59.5 92.6809 60.46 93.3809 61.7C94.0809 62.94 94.4309 64.4 94.4309 66.08C94.4309 66.24 94.4209 66.42 94.4009 66.62C94.4009 66.82 94.3909 67.01 94.3709 67.19H81.0209V64.7H92.3909L90.9209 65.48C90.9409 64.56 90.7509 63.75 90.3509 63.05C89.9509 62.35 89.4009 61.8 88.7009 61.4C88.0209 61 87.2309 60.8 86.3309 60.8C85.4109 60.8 84.6009 61 83.9009 61.4C83.2209 61.8 82.6809 62.36 82.2809 63.08C81.9009 63.78 81.7109 64.61 81.7109 65.57V66.17C81.7109 67.13 81.9309 67.98 82.3709 68.72C82.8109 69.46 83.4309 70.03 84.2309 70.43C85.0309 70.83 85.9509 71.03 86.9909 71.03C87.8909 71.03 88.7009 70.89 89.4209 70.61C90.1409 70.33 90.7809 69.89 91.3409 69.29L93.3509 71.6C92.6309 72.44 91.7209 73.09 90.6209 73.55C89.5409 73.99 88.3009 74.21 86.9009 74.21ZM102.983 74.21C101.643 74.21 100.353 74.04 99.113 73.7C97.893 73.34 96.923 72.91 96.203 72.41L97.643 69.56C98.363 70.02 99.223 70.4 100.223 70.7C101.223 71 102.223 71.15 103.223 71.15C104.403 71.15 105.253 70.99 105.773 70.67C106.313 70.35 106.583 69.92 106.583 69.38C106.583 68.94 106.403 68.61 106.043 68.39C105.683 68.15 105.213 67.97 104.633 67.85C104.053 67.73 103.403 67.62 102.683 67.52C101.983 67.42 101.273 67.29 100.553 67.13C99.853 66.95 99.213 66.7 98.633 66.38C98.053 66.04 97.583 65.59 97.223 65.03C96.863 64.47 96.683 63.73 96.683 62.81C96.683 61.79 96.973 60.91 97.553 60.17C98.133 59.41 98.943 58.83 99.983 58.43C101.043 58.01 102.293 57.8 103.733 57.8C104.813 57.8 105.903 57.92 107.003 58.16C108.103 58.4 109.013 58.74 109.733 59.18L108.293 62.03C107.533 61.57 106.763 61.26 105.983 61.1C105.223 60.92 104.463 60.83 103.703 60.83C102.563 60.83 101.713 61 101.153 61.34C100.613 61.68 100.343 62.11 100.343 62.63C100.343 63.11 100.523 63.47 100.883 63.71C101.243 63.95 101.713 64.14 102.293 64.28C102.873 64.42 103.513 64.54 104.213 64.64C104.933 64.72 105.643 64.85 106.343 65.03C107.043 65.21 107.683 65.46 108.263 65.78C108.863 66.08 109.343 66.51 109.703 67.07C110.063 67.63 110.243 68.36 110.243 69.26C110.243 70.26 109.943 71.13 109.343 71.87C108.763 72.61 107.933 73.19 106.853 73.61C105.773 74.01 104.483 74.21 102.983 74.21ZM121.002 74.21C119.222 74.21 117.662 73.86 116.322 73.16C115.002 72.44 113.972 71.46 113.232 70.22C112.512 68.98 112.152 67.57 112.152 65.99C112.152 64.39 112.502 62.98 113.202 61.76C113.922 60.52 114.902 59.55 116.142 58.85C117.402 58.15 118.832 57.8 120.432 57.8C121.992 57.8 123.382 58.14 124.602 58.82C125.822 59.5 126.782 60.46 127.482 61.7C128.182 62.94 128.532 64.4 128.532 66.08C128.532 66.24 128.522 66.42 128.502 66.62C128.502 66.82 128.492 67.01 128.472 67.19H115.122V64.7H126.492L125.022 65.48C125.042 64.56 124.852 63.75 124.452 63.05C124.052 62.35 123.502 61.8 122.802 61.4C122.122 61 121.332 60.8 120.432 60.8C119.512 60.8 118.702 61 118.002 61.4C117.322 61.8 116.782 62.36 116.382 63.08C116.002 63.78 115.812 64.61 115.812 65.57V66.17C115.812 67.13 116.032 67.98 116.472 68.72C116.912 69.46 117.532 70.03 118.332 70.43C119.132 70.83 120.052 71.03 121.092 71.03C121.992 71.03 122.802 70.89 123.522 70.61C124.242 70.33 124.882 69.89 125.442 69.29L127.452 71.6C126.732 72.44 125.822 73.09 124.722 73.55C123.642 73.99 122.402 74.21 121.002 74.21ZM141.225 57.8C142.505 57.8 143.645 58.05 144.645 58.55C145.665 59.05 146.465 59.82 147.045 60.86C147.625 61.88 147.915 63.2 147.915 64.82V74H144.165V65.3C144.165 63.88 143.825 62.82 143.145 62.12C142.485 61.42 141.555 61.07 140.355 61.07C139.475 61.07 138.695 61.25 138.015 61.61C137.335 61.97 136.805 62.51 136.425 63.23C136.065 63.93 135.885 64.82 135.885 65.9V74H132.135V57.98H135.705V62.3L135.075 60.98C135.635 59.96 136.445 59.18 137.505 58.64C138.585 58.08 139.825 57.8 141.225 57.8ZM158.702 74.21C156.942 74.21 155.582 73.76 154.622 72.86C153.662 71.94 153.182 70.59 153.182 68.81V54.44H156.932V68.72C156.932 69.48 157.122 70.07 157.502 70.49C157.902 70.91 158.452 71.12 159.152 71.12C159.992 71.12 160.692 70.9 161.252 70.46L162.302 73.13C161.862 73.49 161.322 73.76 160.682 73.94C160.042 74.12 159.382 74.21 158.702 74.21ZM150.542 61.1V58.1H161.222V61.1H150.542ZM170.336 74.21C168.996 74.21 167.706 74.04 166.466 73.7C165.246 73.34 164.276 72.91 163.556 72.41L164.996 69.56C165.716 70.02 166.576 70.4 167.576 70.7C168.576 71 169.576 71.15 170.576 71.15C171.756 71.15 172.606 70.99 173.126 70.67C173.666 70.35 173.936 69.92 173.936 69.38C173.936 68.94 173.756 68.61 173.396 68.39C173.036 68.15 172.566 67.97 171.986 67.85C171.406 67.73 170.756 67.62 170.036 67.52C169.336 67.42 168.626 67.29 167.906 67.13C167.206 66.95 166.566 66.7 165.986 66.38C165.406 66.04 164.936 65.59 164.576 65.03C164.216 64.47 164.036 63.73 164.036 62.81C164.036 61.79 164.326 60.91 164.906 60.17C165.486 59.41 166.296 58.83 167.336 58.43C168.396 58.01 169.646 57.8 171.086 57.8C172.166 57.8 173.256 57.92 174.356 58.16C175.456 58.4 176.366 58.74 177.086 59.18L175.646 62.03C174.886 61.57 174.116 61.26 173.336 61.1C172.576 60.92 171.816 60.83 171.056 60.83C169.916 60.83 169.066 61 168.506 61.34C167.966 61.68 167.696 62.11 167.696 62.63C167.696 63.11 167.876 63.47 168.236 63.71C168.596 63.95 169.066 64.14 169.646 64.28C170.226 64.42 170.866 64.54 171.566 64.64C172.286 64.72 172.996 64.85 173.696 65.03C174.396 65.21 175.036 65.46 175.616 65.78C176.216 66.08 176.696 66.51 177.056 67.07C177.416 67.63 177.596 68.36 177.596 69.26C177.596 70.26 177.296 71.13 176.696 71.87C176.116 72.61 175.286 73.19 174.206 73.61C173.126 74.01 171.836 74.21 170.336 74.21Z" fill="#F19FED"/>
</svg>
